<svg width="45" height="45" viewBox="0 0 45 45" fill="none" xmlns="http://www.w3.org/2000/svg">
<path d="M9.11905 29.913C13.5743 35.2186 18.9375 39.396 25.0589 42.3518C27.3895 43.4521 30.5063 44.7576 33.9788 44.9813C34.1941 44.9907 34.4 45 34.6152 45C36.9458 45 38.8178 44.1981 40.3435 42.5477C40.3528 42.5383 40.3715 42.5197 40.3809 42.501C40.9238 41.8483 41.5415 41.2609 42.1874 40.6361C42.6273 40.2165 43.0765 39.7783 43.5071 39.3307C45.5007 37.2607 45.5007 34.6312 43.4884 32.6264L37.8631 27.0224C36.9084 26.034 35.7665 25.5118 34.5684 25.5118C33.3704 25.5118 32.2191 26.034 31.2363 27.0131L27.8855 30.3512C27.5766 30.1741 27.2584 30.0155 26.9589 29.8663C26.5845 29.6799 26.2382 29.5027 25.9293 29.3069C22.878 27.3767 20.1075 24.8591 17.4587 21.6235C16.1202 19.9358 15.2217 18.5184 14.5946 17.0731C15.4744 16.2806 16.298 15.4507 17.0936 14.6395C17.3744 14.3504 17.6646 14.0613 17.9547 13.7723C18.9656 12.7652 19.5085 11.5997 19.5085 10.4155C19.5085 9.23125 18.975 8.06569 17.9547 7.05864L15.1655 4.27994C14.8379 3.95358 14.529 3.63655 14.2108 3.31019C13.5931 2.67613 12.9472 2.02341 12.3108 1.43597C11.3467 0.494198 10.2141 0 9.01609 0C7.82739 0 6.68549 0.494198 5.68399 1.4453L2.18341 4.93266C0.910468 6.20079 0.189761 7.73933 0.0400031 9.52031C-0.137834 11.7489 0.273999 14.1173 1.34102 16.9799C2.97899 21.409 5.44999 25.5211 9.11905 29.913ZM2.3238 9.71612C2.43612 8.47596 2.91347 7.44094 3.81202 6.54579L7.29388 3.07708C7.83675 2.55491 8.43578 2.2845 9.01609 2.2845C9.58704 2.2845 10.1673 2.55491 10.7009 3.09573C11.328 3.67385 11.9176 4.27994 12.5541 4.92333C12.8723 5.24969 13.1999 5.57605 13.5275 5.91173L16.3168 8.69043C16.8971 9.26855 17.1966 9.85599 17.1966 10.4341C17.1966 11.0122 16.8971 11.5997 16.3168 12.1778C16.0266 12.4668 15.7365 12.7652 15.4463 13.0543C14.5758 13.9308 13.7615 14.7607 12.863 15.5533C12.8443 15.5719 12.8349 15.5812 12.8162 15.5999C12.0393 16.3738 12.161 17.1104 12.3482 17.6699C12.3576 17.6979 12.3669 17.7165 12.3763 17.7445C13.097 19.4695 14.0985 21.1107 15.6616 23.0688C18.4695 26.5189 21.4272 29.195 24.6845 31.2557C25.0869 31.5168 25.5175 31.7219 25.92 31.9271C26.2943 32.1136 26.6407 32.2907 26.9495 32.4865C26.987 32.5052 27.0151 32.5238 27.0525 32.5425C27.3614 32.701 27.6609 32.7756 27.9604 32.7756C28.7092 32.7756 29.1959 32.3 29.355 32.1415L32.8556 28.6542C33.3985 28.1133 33.9881 27.8243 34.5684 27.8243C35.2798 27.8243 35.8601 28.2625 36.2251 28.6542L41.8691 34.2675C42.9923 35.3864 42.9829 36.5986 41.841 37.7828C41.4479 38.2024 41.0361 38.6034 40.5962 39.023C39.941 39.6571 39.2577 40.3098 38.64 41.0464C37.5636 42.2027 36.2813 42.7435 34.6246 42.7435C34.4655 42.7435 34.297 42.7341 34.1379 42.7248C31.0679 42.529 28.2131 41.3355 26.0697 40.3191C20.2479 37.5124 15.1374 33.5309 10.8974 28.477C7.4062 24.2903 5.05688 20.3927 3.50314 16.2153C2.53908 13.6511 2.17405 11.5903 2.3238 9.71612Z" fill="#14695F"/>
</svg>
